<svg preserveAspectRatio="none" width="100%" height="100%" overflow="visible" style="display: block;" viewBox="0 0 20 17" fill="none" xmlns="http://www.w3.org/2000/svg">
<path id="Vector" d="M17.8185 4.06803C17.8306 4.24532 17.8306 4.4226 17.8306 4.60152C17.8306 10.0533 13.7338 16.3409 6.24274 16.3409V16.3376C4.02984 16.3409 1.8629 15.6987 0 14.4879C0.32177 14.5271 0.64516 14.5467 0.96935 14.5476C2.80322 14.5492 4.58468 13.9258 6.02742 12.778C4.28468 12.7445 2.75645 11.5933 2.22258 9.91284C2.83306 10.032 3.46209 10.0075 4.06129 9.84174C2.16129 9.45284 0.79435 7.76164 0.79435 5.7976V5.74532C1.36048 6.06476 1.99435 6.24204 2.64274 6.26164C0.85322 5.05005 0.30161 2.63829 1.38226 0.752667C3.45 3.33028 6.5008 4.89728 9.77582 5.06313C9.44762 3.63012 9.89592 2.12849 10.954 1.12113C12.5943 -0.440963 15.1742 -0.360893 16.7161 1.30005C17.6282 1.11786 18.5024 0.778807 19.3024 0.298417C18.9984 1.25348 18.3621 2.06476 17.5121 2.58028C18.3193 2.48388 19.108 2.26492 19.8508 1.93077C19.304 2.76084 18.6153 3.48388 17.8185 4.06803Z" fill="var(--fill-0, #EFEDFD)" fill-opacity="0.3"/>
</svg>
